<svg xmlns="http://www.w3.org/2000/svg" x="0px" y="0px" width="595px" height="595px" viewBox="0 0 595 595" fill="currentColor">
	<g>
		<path d="M164.63,342.79H92.38l-27.54,83.46H54.48l81.25-227.63h5.72l83.43,227.63h-30.81c-10.36-29.4-14.72-41.73-14.72-41.73
			L164.63,342.79z M162.18,335.21l-34.35-95.48l-33.54,95.48H162.18z"/>
	</g>
	<g>
		<path d="M240.49,130.03c-5.05-5.19-7.28-11.51-7.28-19.58c0-6.91,2.25-13.26,7.28-19.01c5.61-5.19,11.2-8.07,18.48-8.07
			c7.28,0,13.45,2.88,18.48,8.07c5.05,5.77,7.84,12.1,7.84,19.01c0,8.07-2.81,14.4-7.84,19.58c-5.03,5.19-11.21,8.07-18.48,8.07
			C251.69,138.1,246.1,135.22,240.49,130.03z M271.3,207.21h5.61v110.02v37.45v72.57h-35.86v-72.57v-63.94c0-1.16,0-2.3,0-3.47
			v-80.06H271.3z"/>
	</g>
	<g>
		<path d="M537.25,402.92c-5.44,7.72-12.54,14.36-21.26,19.87c-14.72,8.82-31.61,13.8-49.07,13.8c-16.9,0-32.16-4.42-47.43-12.68
			c-14.72-8.82-26.72-20.43-35.98-35.88c-9.26-15.45-14.18-34.21-14.18-56.3c0-31.46,9.26-57.41,27.27-78.37
			c17.98-20.43,40.88-30.91,68.15-30.91c25.63,0,45.79,7.73,59.42,23.74c14.18,15.45,19.62,32.02,19.62,51.34H410.21
			c-0.55,9.38-1.09,16.56-1.09,20.97c0,34.77,5.44,61.27,16.37,78.93c10.35,17.1,26.71,25.95,47.98,25.95
			c24.53,0,43.08-9.38,55.6-28.69L537.25,402.92z M410.77,287.57H514.9c0-11.03-9.27-54.64-51.78-54.64
			C433.67,232.93,416.78,251.14,410.77,287.57z"/>
	</g>
	<g>
		<path d="M317.03,130.03c-5.05-5.19-7.28-11.51-7.28-19.58c0-6.91,2.25-13.26,7.28-19.01c5.61-5.19,11.2-8.07,18.48-8.07
			c7.28,0,13.45,2.88,18.48,8.07c5.05,5.77,7.84,12.1,7.84,19.01c0,8.07-2.81,14.4-7.84,19.58c-5.03,5.19-11.21,8.07-18.48,8.07
			C328.23,138.1,322.64,135.22,317.03,130.03z M347.84,207.21h5.61v110.02v37.45v72.57h-35.86v-72.57v-63.94c0-1.16,0-2.3,0-3.47
			v-80.06H347.84z"/>
	</g>
</svg>
